<svg width="62" height="62" viewBox="0 0 62 62" fill="none" xmlns="http://www.w3.org/2000/svg">
<rect width="61.8491" height="61.13" rx="30.565" fill="white"/>
<path d="M43.2817 23.4713H39.1628L36.4169 17.9794H25.4331L22.6871 23.4713H18.5682C17.8399 23.4713 17.1415 23.7605 16.6265 24.2755C16.1116 24.7904 15.8223 25.489 15.8223 26.2172V39.9469C15.8223 40.6752 16.1116 41.3737 16.6265 41.8887C17.1415 42.4036 17.8399 42.6929 18.5682 42.6929H43.2817C44.0099 42.6929 44.7085 42.4036 45.2235 41.8887C45.7384 41.3737 46.0277 40.6752 46.0277 39.9469V26.2172C46.0277 25.489 45.7384 24.7904 45.2235 24.2755C44.7085 23.7605 44.0099 23.4713 43.2817 23.4713Z" stroke="#616264" stroke-width="2.74595" stroke-linecap="round" stroke-linejoin="round"/>
<path d="M25.4326 31.7091C25.4326 33.1655 26.0112 34.5625 27.0412 35.5924C28.0711 36.6223 29.468 37.2009 30.9245 37.2009C32.381 37.2009 33.7779 36.6223 34.8078 35.5924C35.8377 34.5625 36.4164 33.1655 36.4164 31.7091C36.4164 30.2526 35.8377 28.8557 34.8078 27.8257C33.7779 26.7958 32.381 26.2172 30.9245 26.2172C29.468 26.2172 28.0711 26.7958 27.0412 27.8257C26.0112 28.8557 25.4326 30.2526 25.4326 31.7091Z" stroke="#616264" stroke-width="2.74595" stroke-linecap="round" stroke-linejoin="round"/>
</svg>
