<svg width="62" height="62" viewBox="0 0 62 62" fill="none" xmlns="http://www.w3.org/2000/svg">
<path d="M31.285 0H30.565C13.6844 0 0 13.6844 0 30.565C0 47.4456 13.6844 61.13 30.565 61.13H31.285C48.1656 61.13 61.85 47.4456 61.85 30.565C61.85 13.6844 48.1656 0 31.285 0Z" fill="white"/>
<path d="M31.285 0H30.565C13.6844 0 0 13.6844 0 30.565C0 47.4456 13.6844 61.13 30.565 61.13H31.285C48.1656 61.13 61.85 47.4456 61.85 30.565C61.85 13.6844 48.1656 0 31.285 0Z" fill="white"/>
<path d="M34.3645 42.6945H15.7021" stroke="#585B65" stroke-width="2.32258" stroke-linecap="round" stroke-linejoin="round"/>
<path d="M43.2687 26.4364V21.7912C43.2687 21.1752 43.0241 20.5845 42.5885 20.1489C42.153 19.7134 41.5621 19.4686 40.9462 19.4686H24.6881V17.1461C24.6881 16.5301 24.4434 15.9393 24.0078 15.5038C23.5723 15.0682 22.9815 14.8235 22.3655 14.8235H15.3978C14.7818 14.8235 14.191 15.0682 13.7555 15.5038C13.3199 15.9393 13.0752 16.5301 13.0752 17.1461V40.0622C13.0839 40.6947 13.3201 41.3028 13.7405 41.7753C14.1609 42.2479 14.7374 42.5534 15.3645 42.6356C15.9917 42.718 16.6275 42.5718 17.1556 42.2237C17.6837 41.8757 18.0689 41.3492 18.2406 40.7404L21.8809 28.1148C22.0206 27.6307 22.314 27.2052 22.7167 26.9025C23.1195 26.5997 23.6098 26.4361 24.1136 26.4364H45.5913C45.9473 26.4363 46.2986 26.518 46.6181 26.6752C46.9375 26.8325 47.2163 27.0611 47.4334 27.3433C47.6504 27.6256 47.457 31.8938 47.5268 32.2428" stroke="#585B65" stroke-width="2.32258" stroke-linecap="round" stroke-linejoin="round"/>
<path d="M47.5267 32.2428H36.688C35.8329 32.2428 35.1396 32.936 35.1396 33.7912V44.6299C35.1396 45.4851 35.8329 46.1783 36.688 46.1783H47.5267C48.3819 46.1783 49.0751 45.4851 49.0751 44.6299V33.7912C49.0751 32.936 48.3819 32.2428 47.5267 32.2428Z" stroke="#585B65" stroke-width="2.32258" stroke-linecap="round" stroke-linejoin="round"/>
<path d="M38.3804 37.323C38.0598 37.323 37.7998 37.0631 37.7998 36.7424C37.7998 36.4217 38.0598 36.1617 38.3804 36.1617" stroke="#585B65" stroke-width="2.32258"/>
<path d="M38.3818 37.323C38.7025 37.323 38.9625 37.0631 38.9625 36.7424C38.9625 36.4217 38.7025 36.1617 38.3818 36.1617" stroke="#585B65" stroke-width="2.32258"/>
<path d="M47.3487 44.7492L43.9237 39.6132C43.8141 39.4481 43.6642 39.3139 43.488 39.2233C43.3119 39.1327 43.1155 39.0887 42.9176 39.0955C42.7197 39.1023 42.5268 39.1598 42.3572 39.2623C42.1878 39.3648 42.0474 39.5091 41.9495 39.6813L38.2334 46.1845" stroke="#585B65" stroke-width="2.32258" stroke-linecap="round" stroke-linejoin="round"/>
</svg>
