<svg width="388" height="397" viewBox="0 0 388 397" fill="none" xmlns="http://www.w3.org/2000/svg">
<path d="M183.035 4.22853C135.62 -18.2697 22.2504 51.7752 2.98331 148.674C-18.5919 257.181 79.9281 388.81 199.236 388.679C276.625 388.594 350.372 333.083 376.506 257.751C408.48 165.587 365.619 54.0342 318.712 43.7664C291.457 37.8004 272.493 68.142 239.061 57.6615C207.669 47.8203 207.101 15.6478 183.035 4.22853Z" fill="#ECEDEF"/>
<path d="M344.034 371.432C344.034 374.308 341.678 376.662 338.798 376.662H55.7022C52.8228 376.662 50.467 374.308 50.467 371.432L48.1113 208.744C48.1113 205.868 51.5003 200.252 57.7115 200.674L334.385 193.515C337.997 193.421 341.49 194.812 344.049 197.362C346.607 199.912 348.007 203.399 347.921 207.008L344.034 371.432Z" fill="#616264"/>
<path d="M338.866 366.414C338.866 369.138 336.637 371.367 333.913 371.367H62.5296C59.8056 371.367 57.5768 369.139 57.5768 366.414L55.354 218.725C55.6158 209.837 63.4077 206.643 68.1312 206.832L333.305 199.718C335.843 199.65 338.298 200.627 340.095 202.421C341.892 204.214 342.873 206.667 342.809 209.206L338.866 366.414Z" fill="#CCCED0"/>
<path d="M60.5099 295.993C60.255 295.993 60.0464 295.788 60.0427 295.532L59.8667 283.555C59.863 283.297 60.0692 283.084 60.3272 283.08C60.5768 283.067 60.7977 283.283 60.8014 283.541L60.9774 295.519C60.9811 295.777 60.7749 295.989 60.5169 295.993C60.5146 295.993 60.5122 295.993 60.5099 295.993Z" fill="white"/>
<path d="M60.0783 266.642C59.8234 266.642 59.6148 266.437 59.6111 266.181L58.9375 220.308C58.9515 217.224 59.9023 214.761 61.7636 212.977C65.1456 209.737 70.4332 209.899 70.6565 209.908L155.332 207.636C155.587 207.613 155.804 207.832 155.811 208.09C155.818 208.348 155.615 208.563 155.357 208.57L70.6542 210.842C70.4134 210.833 65.509 210.683 62.4103 213.652C60.7389 215.254 59.8848 217.492 59.8721 220.303L60.5458 266.168C60.5496 266.426 60.3433 266.638 60.0853 266.642C60.083 266.642 60.0805 266.642 60.0783 266.642Z" fill="white"/>
<path opacity="0.23" d="M69.5326 358.221C69.8168 346.014 69.711 237.921 69.0106 228.586C68.3102 219.25 82.8495 217.499 105.172 216.449C127.494 215.398 315.836 211.239 320.685 210.845C331.585 209.962 333.841 226.254 332.751 261.624C331.932 288.198 330.574 331.972 329.949 352.103C329.763 358.097 324.864 362.853 318.867 362.87C273.544 362.994 99.8353 363.492 88.2714 363.837C74.964 364.233 69.4199 363.061 69.5326 358.221Z" fill="#F5F6F7"/>
<path d="M359.853 390.167H40.3878C36.4569 390.167 33.2407 386.951 33.2407 383.02C33.2407 379.089 36.457 375.873 40.3878 375.873H359.853C363.784 375.873 367 379.089 367 383.02C367 386.951 363.784 390.167 359.853 390.167Z" fill="#616264"/>
<path d="M296.604 93.6369L106.7 92.4743C100.459 92.436 95.4677 97.6491 95.7768 103.883L108.842 373.69H320.169L331.903 132.632L296.604 93.6369Z" fill="#9E9FA2"/>
<path d="M304.5 131.476C298.314 131.258 293.559 125.927 294.046 119.756L296.082 93.9924L331.94 132.473L304.5 131.476Z" fill="#616264"/>
<path opacity="0.78" d="M135.928 145.597C163.006 145.518 266.959 145.105 293.209 145C296.52 144.987 299.138 147.041 298.994 149.535C298.858 151.908 296.254 153.806 293.103 153.829L135.889 155C132.861 155.022 130.346 153.303 130.087 151.034L130.022 150.459C129.726 147.864 132.465 145.607 135.928 145.597Z" fill="white"/>
<path opacity="0.78" d="M135.888 164.362C162.787 164.286 266.053 163.887 292.129 163.786C295.418 163.773 298.019 165.758 297.876 168.166C297.74 170.458 295.154 172.291 292.024 172.313L135.85 173.444C132.842 173.466 130.344 171.805 130.087 169.613L130.022 169.059C129.728 166.552 132.449 164.372 135.888 164.362Z" fill="white"/>
<path opacity="0.78" d="M136.076 191.034C162.405 191.052 263.475 191.016 288.997 191.007C292.216 191.006 294.829 193 294.771 195.409C294.716 197.702 292.248 199.527 289.183 199.538L136.348 200.12C133.404 200.132 130.902 198.461 130.576 196.267L130.493 195.712C130.12 193.204 132.709 191.031 136.076 191.034Z" fill="white"/>
<path opacity="0.78" d="M134.86 210.896C155.354 210.807 234.027 210.359 253.893 210.245C256.399 210.231 258.419 212.214 258.358 214.623C258.299 216.916 256.365 218.75 253.98 218.775L135.009 219.98C132.717 220.003 130.781 218.344 130.543 216.151L130.482 215.597C130.209 213.09 132.239 210.907 134.86 210.896Z" fill="white"/>
<path opacity="0.78" d="M135.817 236.902C162.146 236.92 263.216 236.884 288.738 236.875C291.957 236.874 294.571 238.868 294.513 241.277C294.458 243.57 291.989 245.395 288.925 245.406L136.089 245.988C133.145 245.999 130.643 244.329 130.317 242.135L130.235 241.58C129.862 239.072 132.451 236.899 135.817 236.902Z" fill="white"/>
<path opacity="0.78" d="M133.527 257.094C154.118 257.132 233.163 257.169 253.123 257.178C255.641 257.179 257.659 259.175 257.583 261.584C257.511 263.876 255.557 265.699 253.16 265.708L133.623 266.18C131.32 266.189 129.385 264.517 129.158 262.323L129.101 261.768C128.841 259.26 130.894 257.09 133.527 257.094Z" fill="white"/>
<path opacity="0.78" d="M134.519 283.706C160.848 283.724 261.918 283.688 287.44 283.679C290.659 283.678 293.273 285.672 293.215 288.081C293.16 290.374 290.691 292.199 287.627 292.21L134.791 292.792C131.847 292.803 129.345 291.133 129.019 288.939L128.937 288.384C128.564 285.875 131.153 283.703 134.519 283.706Z" fill="white"/>
<g opacity="0.74">
<path opacity="0.78" d="M132.929 303.659C153.52 303.697 232.566 303.734 252.526 303.743C255.044 303.744 257.062 305.74 256.986 308.149C256.913 310.441 254.959 312.264 252.562 312.273L133.025 312.744C130.723 312.754 128.787 311.082 128.56 308.888L128.503 308.333C128.244 305.824 130.296 303.655 132.929 303.659Z" fill="white"/>
</g>
<path opacity="0.48" d="M136.076 329.966C162.405 329.984 263.475 329.948 288.997 329.939C292.216 329.938 294.829 331.932 294.771 334.341C294.716 336.634 292.248 338.459 289.183 338.47L136.348 339.052C133.404 339.064 130.902 337.394 130.576 335.199L130.493 334.644C130.12 332.136 132.709 329.963 136.076 329.966Z" fill="white"/>
<path opacity="0.36" d="M134.587 352.081C154.917 352.082 232.964 351.979 252.673 351.953C255.159 351.95 257.153 353.942 257.08 356.351C257.011 358.643 255.083 360.469 252.717 360.483L134.691 361.166C132.417 361.179 130.505 359.511 130.278 357.317L130.221 356.762C129.962 354.254 131.987 352.081 134.587 352.081Z" fill="white"/>
<path d="M175.898 396.056C175.715 396.056 175.529 396.016 175.351 395.932C174.647 395.602 174.322 394.712 174.625 393.944L203.698 320.175C204.001 319.408 204.816 319.054 205.52 319.384C206.223 319.714 206.548 320.604 206.245 321.371L177.172 395.14C176.946 395.713 176.435 396.056 175.898 396.056Z" fill="#464B56"/>
<path d="M208.651 396.055C208.113 396.055 207.602 395.713 207.377 395.14L178.303 321.371C178.001 320.604 178.325 319.714 179.029 319.383C179.732 319.053 180.547 319.407 180.85 320.175L209.923 393.944C210.226 394.712 209.901 395.602 209.198 395.932C209.019 396.016 208.833 396.055 208.651 396.055Z" fill="#464B56"/>
<path d="M299.652 396.055C299.469 396.055 299.283 396.016 299.104 395.932C298.401 395.602 298.076 394.712 298.379 393.944L327.452 320.175C327.755 319.408 328.569 319.054 329.274 319.383C329.977 319.713 330.302 320.604 329.999 321.371L300.926 395.14C300.7 395.713 300.189 396.055 299.652 396.055Z" fill="#464B56"/>
<path d="M332.404 396.055C331.866 396.055 331.355 395.713 331.129 395.14L302.056 321.371C301.753 320.604 302.078 319.714 302.782 319.383C303.485 319.053 304.3 319.407 304.603 320.175L333.676 393.944C333.979 394.712 333.654 395.602 332.951 395.932C332.772 396.016 332.586 396.055 332.404 396.055Z" fill="#464B56"/>
<path d="M283.592 352.345H280.154V389.519H283.592V352.345Z" fill="#F5F6F7"/>
<path d="M296.926 390.236H266.819V390.074C266.819 388.928 267.749 387.998 268.895 387.998H294.689C295.925 387.998 296.926 389 296.926 390.236Z" fill="#F5F6F7"/>
<path d="M301.395 351.055C301.395 353.088 299.731 354.752 297.698 354.752H267.238C265.204 354.752 263.541 353.088 263.541 351.055V347.713C263.541 345.679 265.204 344.016 267.238 344.016H297.698C299.731 344.016 301.395 345.679 301.395 347.713V351.055Z" fill="#F5F6F7"/>
<path d="M256.496 327.559C256.496 327.559 251.389 328.351 245.646 332.19C244.742 332.794 244.246 333.847 244.382 334.926C245.07 340.373 247.897 358.003 257.221 375.223C257.712 376.131 257.854 377.188 257.637 378.198L256.017 385.736L253.013 388.553H260.75L265.902 374.611L263.699 373.914C261.991 373.374 260.819 371.803 260.788 370.012L260.53 355.057C260.75 348.394 256.444 343.797 256.444 343.797L268.801 343.196L256.496 327.559Z" fill="#D7DDE8"/>
<path d="M249.992 389.913C249.287 390.835 257.576 392.052 261.764 390.035C261.764 390.035 267.569 379.935 267.569 374.735C267.569 374.735 267.108 373.674 263.699 373.915C263.699 373.915 261.75 385.874 259.692 387.213C257.634 388.553 253.934 387.349 253.934 387.349C253.934 387.349 251.032 388.552 249.992 389.913Z" fill="#464B56"/>
<path d="M265.238 341.016C265.172 340.902 251.934 339.424 251.934 339.424C251.934 339.424 252.367 343.449 251.013 348.99C249.659 354.531 230.222 378.538 230.222 378.538L232.26 384.998C225.959 387.193 219.761 387.544 213.662 386.117L226.292 378.538C226.292 378.538 238.112 338.256 245.353 331.069L258.623 326.479L265.238 341.016Z" fill="#D7DDE8"/>
<path d="M296.927 320.577C296.927 320.577 304.554 331.922 305.18 337.097C305.806 342.272 303.091 344.374 295.088 344.721C287.085 345.068 265.72 345.062 265.72 345.062L247.486 329.479C247.486 329.479 260.774 324.737 264.229 323.396C267.684 322.056 296.927 320.577 296.927 320.577Z" fill="#616264"/>
<path d="M231.49 382.823C231.49 382.823 233.685 384.948 232.202 387.312C232.202 387.312 214.821 390.393 210.102 388.995C210.102 388.995 211.082 386.759 216.396 384.213L216.004 384.514C215.508 384.895 215.799 385.689 216.423 385.653C219.925 385.453 227.171 384.812 231.49 382.823Z" fill="#464B56"/>
<path d="M270.941 248.1C272.132 247.902 276.513 247.362 277.237 249.989C277.333 250.338 277.766 250.455 278.036 250.214C279.417 248.978 282.674 246.655 286.246 248.293C289.399 249.74 289.108 252.753 288.563 254.601C288.431 255.047 288.918 255.419 289.304 255.159C292.056 253.306 298.396 249.997 302.457 255.451C306.244 260.538 303.155 264.068 301.076 265.673C300.724 265.945 300.891 266.503 301.334 266.546C302.85 266.695 304.94 267.53 305.901 270.773C307.407 275.856 298.083 280.08 296.985 280.557C296.916 280.588 296.842 280.6 296.766 280.596L277.933 279.631C277.786 279.624 277.65 279.551 277.563 279.433L266.009 263.869C265.916 263.743 265.888 263.58 265.934 263.43L270.554 248.44C270.609 248.262 270.757 248.13 270.941 248.1Z" fill="#616264"/>
<path d="M276.3 313.075C276.3 313.075 267.418 304.618 263.046 299.016C260.683 295.988 259.941 292.002 261.034 288.32C263.03 281.595 266.577 274.63 266.9 273.546C267.396 271.884 277.355 271.953 277.355 271.953C277.355 271.953 296.952 284.672 304.652 306.217L296.005 308.909C296.005 308.909 290.888 300.324 285.832 294.866C285.832 294.866 294.58 306.423 294.888 311.154L276.3 313.075Z" fill="#616264"/>
<path d="M265.696 264.259C265.8 264.605 268.399 273.222 268.602 273.401C268.806 273.58 274.303 273.875 276.89 272.107L272.501 262.917L265.696 264.259Z" fill="#D7DDE8"/>
<path d="M258.35 252.105C258.35 252.105 256.18 256.713 258.334 263.891C260.488 271.069 264.352 271.808 266.867 270.129C269.382 268.451 272.669 265.413 273.268 258.99C273.866 252.568 261.321 246.283 258.35 252.105Z" fill="#D7DDE8"/>
<path d="M268.481 258.422C268.481 258.422 264.491 248.673 257.866 254.46L257.291 256.919C257.291 256.919 251.216 254.98 253.405 249.488C255.594 243.997 262.833 239.65 269.277 243.456C275.72 247.263 278.021 252.381 277.51 257.427C276.999 262.473 273.263 260.624 273.263 260.624C273.263 260.624 272.65 256.883 270.89 256.166C269.131 255.45 269.08 258.265 269.08 258.265L268.481 258.422Z" fill="#616264"/>
<path d="M258.206 313.704L264.731 307.414L273.759 311.227C273.759 311.227 282.745 312.62 287.887 311.227C293.03 309.835 293.03 309.835 293.03 309.835L304.652 306.217L306.478 311.376C306.941 312.685 306.475 314.139 305.343 314.944C304.338 315.658 303.159 316.444 302.408 316.772C300.877 317.442 264.679 316.309 264.679 316.309L258.206 313.704Z" fill="#D7DDE8"/>
<path d="M282.901 316.669C282.872 316.67 282.843 316.671 282.814 316.671L244.959 316.629C244.023 316.629 243.266 315.869 243.267 314.933C243.268 313.997 244.03 313.224 244.963 313.241L282.817 313.282C283.753 313.283 284.511 314.042 284.51 314.978C284.509 315.885 283.796 316.624 282.901 316.669Z" fill="#616264"/>
<path d="M210.93 282.299H242.455C244.781 282.299 246.898 283.641 247.89 285.745L262.464 316.649H223.286C221.787 316.649 220.441 315.733 219.89 314.339L208.588 285.742C207.935 284.09 209.153 282.299 210.93 282.299Z" fill="#616264"/>
<path d="M233.14 298.145C233.823 300.267 233.318 302.328 232.012 302.749C230.707 303.169 229.094 301.789 228.411 299.667C227.728 297.544 228.233 295.483 229.538 295.062C230.844 294.642 232.456 296.022 233.14 298.145Z" fill="#D5D7D9"/>
<path d="M335.807 318.052C335.903 317.622 335.773 317.178 335.452 316.841C335.132 316.504 334.655 316.309 334.152 316.309H163.654C162.992 316.309 162.376 316.602 162.02 317.086C161.663 317.57 161.615 318.179 161.893 318.701L163.74 322.174C164.163 322.969 165.08 323.479 166.089 323.479H332.982C333.92 323.479 334.727 322.901 334.905 322.1L335.807 318.052Z" fill="#464B56"/>
</svg>
