<svg width="391" height="389" viewBox="0 0 391 389" fill="none" xmlns="http://www.w3.org/2000/svg">
<path d="M172.374 4.23202C127.721 -18.2848 20.9544 51.818 2.80954 148.797C-17.509 257.393 75.2726 389.131 187.631 389C260.513 388.915 329.964 333.358 354.576 257.964C384.688 165.723 344.324 54.0788 300.148 43.8025C274.481 37.8316 256.621 68.1982 225.137 57.7091C195.573 47.8598 195.038 15.6607 172.374 4.23202Z" fill="#ECEDEF"/>
<path d="M132.983 370.073L26.6646 362.774V92.7751L132.983 85.6689V370.073Z" fill="#CCCED0"/>
<path opacity="0.61" d="M34.8818 350.973V104.591L132.983 98.6406V357.101L34.8818 350.973Z" fill="white"/>
<mask id="mask0_220_841" style="mask-type:luminance" maskUnits="userSpaceOnUse" x="34" y="98" width="99" height="260">
<path d="M34.8818 350.973V104.591L132.983 98.6406V357.101L34.8818 350.973Z" fill="white"/>
</mask>
<g mask="url(#mask0_220_841)">
<path d="M424.046 162.628L318.548 165.423C318.197 113.147 317.907 38.4512 318.479 31.519C318.45 31.8717 318.253 33.7379 317.24 35.845L303.263 24.9343C301.765 28.0771 301.719 30.7052 301.598 37.729C301.529 41.7144 301.481 47.4348 301.455 54.7316C301.411 66.9435 301.428 83.7979 301.504 104.828C301.633 140.605 301.894 176.59 301.896 176.949L301.976 187.821L338.168 187.212V265.526L269.913 264.354L229.133 190.709L173.116 191.608L248.353 68.7099L236.453 55.5892L153.741 191.92L118.149 192.491C118.199 180.127 118.281 158.147 118.33 136.258C118.374 116.924 118.383 101.445 118.358 90.252C118.309 67.9313 118.218 67.6764 117.713 66.2615L111.064 71.5547C110.799 70.8076 110.74 70.1749 110.732 70.0557C111.08 74.6998 110.924 142.489 110.716 192.611L73.5491 193.208C66.7988 157.173 51.0169 72.9755 50.4861 70.6491L38.1068 77.7385L38.0767 77.6004C38.7509 80.8563 52.7003 155.717 62.0175 205.81L63.3589 213.02L141.241 212.523L92.8558 292.274L-2.10303 289.216V308.231L99.1246 312.471L160.387 212.401L221.379 212.012L249.918 264.011L174.517 262.717V410.427L182.415 411.107V273.917L256.259 275.565L330.729 411.255L344.438 398.942L276.369 276.013L347.322 277.597V187.058L424.046 185.768V162.628Z" fill="white"/>
</g>
<path d="M205.499 354.559H329.497V101.558H205.499V354.559Z" fill="#9E9FA2"/>
<path opacity="0.33" d="M319.443 343.001L319.443 112.94L205.499 112.94L205.499 343.001H319.443Z" fill="white"/>
<mask id="mask1_220_841" style="mask-type:luminance" maskUnits="userSpaceOnUse" x="205" y="112" width="115" height="232">
<path d="M319.443 343.001L319.443 112.94L205.499 112.94L205.499 343.001H319.443Z" fill="white"/>
</mask>
<g mask="url(#mask1_220_841)">
<path d="M364.526 176.763H270.274C269.946 133.996 269.675 72.8791 270.209 67.2481C270.182 67.5346 269.998 69.0474 269.051 70.7018L255.892 60.7605C254.471 63.2403 254.428 65.4024 254.313 71.1809C254.247 74.4601 254.202 79.1703 254.177 85.1809C254.136 95.2409 254.152 109.13 254.224 126.462C254.346 155.945 254.594 185.598 254.596 185.894L254.671 194.852H288.456V258.353H223.828L183.298 196.267H125.103L202.586 93.5917L190.683 81.7445L104.26 196.267H64.9603C65.0164 185.184 65.1085 165.483 65.1637 145.863C65.2124 128.535 65.2229 114.661 65.195 104.626C65.1394 84.6157 65.0373 84.381 64.4701 83.0779L56.9761 87.3809C56.676 86.691 56.6102 86.1179 56.6001 86.0101C56.9939 90.211 56.818 151.182 56.5829 196.267H13.7777C5.83578 163.048 -12.9403 84.5621 -13.5768 82.3694L-28.5196 88.0897L-28.5562 87.9588C-27.7378 91.0396 -10.9236 161.259 0.178146 207.706L1.76798 214.356H90.6091L36.2061 286.448H-78.3555V304.537H43.3982L111.452 214.356H175.42L204.141 258.353H126.596V387.281H134.974V267.975H210.423L281.598 377.005L294.201 366.154L230.109 267.975H296.833V194.852H364.526L364.526 176.763Z" fill="white"/>
</g>
<path d="M205.499 354.559L132.983 370.073V85.6689L205.499 101.558V354.559Z" fill="#9E9FA2"/>
<path opacity="0.33" d="M132.983 357.101V98.6406L205.499 113.097V343.019L132.983 357.101Z" fill="white"/>
<mask id="mask2_220_841" style="mask-type:luminance" maskUnits="userSpaceOnUse" x="132" y="98" width="74" height="260">
<path d="M132.983 357.101V98.6406L205.499 113.097V343.019L132.983 357.101Z" fill="white"/>
</mask>
<g mask="url(#mask2_220_841)">
<path d="M277.969 183.417L237.36 179.754C237.208 139.319 237.081 81.5206 237.33 76.2662C237.317 76.5334 237.232 77.9394 236.791 79.3832L230.59 68.1904C229.912 70.3696 229.892 72.4343 229.837 77.9533C229.805 81.0856 229.783 85.5917 229.772 91.3462C229.752 100.978 229.759 114.284 229.794 130.892C229.852 159.14 229.971 187.548 229.972 187.832L230.008 196.411L245.688 197.34V256.438L214.882 257.959L193.716 195.704L160.449 193.814L203.98 93.4071L197.689 79.9461L147.612 193.085L121.926 191.625C121.964 178.967 122.027 156.469 122.064 134.066C122.097 114.28 122.104 98.4362 122.086 86.9725C122.048 64.109 121.978 63.8237 121.593 62.2387L116.454 65.9077C116.247 65.0625 116.202 64.3912 116.195 64.2651C116.467 69.1701 116.345 139.374 116.183 191.299L85.2234 189.54C79.1635 148.817 64.4141 49.76 63.9032 46.9109L51.7029 51.0623L51.6725 50.8896C52.3514 54.94 66.0275 145.11 74.7828 202.936L76.0193 211.102L138.917 212.729L101.792 296.606L7.87207 305.758V329.952L106.941 317.233L152.1 213.07L189.42 214.036L204.792 258.457L161.348 260.603V399.191L166.351 397.841V270.616L208.05 267.871L242.577 367.646L248.268 356.159L218.028 267.214L249.441 265.145V197.563L277.969 199.253V183.417Z" fill="#F5F6F7"/>
</g>
<path d="M54.7684 129.181C53.9994 129.181 53.3132 128.637 53.1609 127.854L52.2668 123.255C52.0939 122.366 52.6744 121.506 53.5632 121.333C54.4502 121.158 55.3123 121.741 55.4854 122.629L56.3795 127.228C56.5524 128.117 55.9719 128.977 55.0831 129.15C54.9774 129.171 54.8722 129.181 54.7684 129.181Z" fill="url(#paint0_linear_220_841)"/>
<path d="M66.6912 190.503C65.9222 190.503 65.2361 189.96 65.0838 189.176L63.0967 178.956C62.9237 178.067 63.5042 177.207 64.393 177.034C65.2798 176.86 66.1421 177.441 66.3152 178.33L68.3023 188.551C68.4753 189.439 67.8948 190.3 67.0059 190.473C66.9003 190.493 66.7951 190.503 66.6912 190.503ZM62.7169 170.063C61.9478 170.063 61.2615 169.519 61.1094 168.736L59.1224 158.515C58.9494 157.626 59.53 156.766 60.4188 156.593C61.3058 156.419 62.1683 157 62.341 157.889L64.3279 168.11C64.5009 168.999 63.9204 169.859 63.0316 170.032C62.9259 170.053 62.8207 170.063 62.7169 170.063ZM58.7428 149.621C57.9737 149.621 57.2876 149.078 57.1353 148.294L55.1482 138.074C54.9752 137.185 55.5557 136.325 56.4446 136.152C57.3323 135.977 58.1939 136.559 58.3668 137.448L60.354 147.669C60.5269 148.557 59.9464 149.418 59.0576 149.591C58.9518 149.611 58.8466 149.621 58.7428 149.621Z" fill="#616264"/>
<path d="M74.2587 205.322H69.5744C68.7897 205.322 68.1149 204.766 67.9651 203.996L67.071 199.397C66.8981 198.508 67.4786 197.648 68.3674 197.475C69.254 197.301 70.1165 197.882 70.2896 198.771L70.9259 202.043H74.2587C75.1641 202.043 75.8982 202.777 75.8982 203.683C75.8982 204.588 75.1641 205.322 74.2587 205.322Z" fill="#616264"/>
<path d="M178.945 205.322H170.221C169.315 205.322 168.581 204.588 168.581 203.683C168.581 202.777 169.315 202.043 170.221 202.043H178.945C179.85 202.043 180.584 202.777 180.584 203.683C180.584 204.588 179.85 205.322 178.945 205.322ZM161.497 205.322H152.773C151.868 205.322 151.134 204.588 151.134 203.683C151.134 202.777 151.868 202.043 152.773 202.043H161.497C162.403 202.043 163.137 202.777 163.137 203.683C163.137 204.588 162.403 205.322 161.497 205.322ZM144.049 205.322H135.326C134.42 205.322 133.686 204.588 133.686 203.683C133.686 202.777 134.42 202.043 135.326 202.043H144.049C144.955 202.043 145.689 202.777 145.689 203.683C145.689 204.588 144.955 205.322 144.049 205.322ZM126.602 205.322H117.878C116.972 205.322 116.238 204.588 116.238 203.683C116.238 202.777 116.972 202.043 117.878 202.043H126.602C127.507 202.043 128.241 202.777 128.241 203.683C128.241 204.588 127.507 205.322 126.602 205.322ZM109.154 205.322H100.43C99.5245 205.322 98.7904 204.588 98.7904 203.683C98.7904 202.777 99.5244 202.043 100.43 202.043H109.154C110.059 202.043 110.793 202.777 110.793 203.683C110.793 204.588 110.059 205.322 109.154 205.322ZM91.7062 205.322H82.9823C82.0768 205.322 81.3428 204.588 81.3428 203.683C81.3428 202.777 82.0768 202.043 82.9823 202.043H91.7062C92.6117 202.043 93.3457 202.777 93.3457 203.683C93.3457 204.588 92.6117 205.322 91.7062 205.322Z" fill="#616264"/>
<path d="M194.236 209.612C193.605 209.612 193.003 209.246 192.733 208.631L191.282 205.322H187.669C186.763 205.322 186.029 204.588 186.029 203.683C186.029 202.777 186.763 202.043 187.669 202.043H192.353C193.004 202.043 193.593 202.428 193.855 203.024L195.736 207.313C196.1 208.143 195.723 209.11 194.894 209.473C194.679 209.568 194.455 209.612 194.236 209.612Z" fill="#616264"/>
<path d="M257.093 328.648C256.532 328.648 255.987 328.361 255.68 327.844L250.77 319.557C250.308 318.778 250.565 317.773 251.345 317.311C252.123 316.848 253.129 317.106 253.591 317.886L258.502 326.172C258.963 326.951 258.706 327.957 257.927 328.418C257.665 328.574 257.377 328.648 257.093 328.648ZM247.271 312.075C246.711 312.075 246.165 311.788 245.859 311.271L240.948 302.984C240.486 302.205 240.744 301.2 241.523 300.738C242.301 300.276 243.307 300.534 243.769 301.313L248.68 309.599C249.141 310.378 248.884 311.384 248.105 311.845C247.843 312.001 247.555 312.075 247.271 312.075ZM237.449 295.502C236.889 295.502 236.343 295.215 236.037 294.698L231.126 286.412C230.664 285.633 230.922 284.627 231.701 284.166C232.48 283.703 233.485 283.961 233.947 284.74L238.858 293.027C239.32 293.806 239.062 294.811 238.284 295.273C238.021 295.428 237.733 295.502 237.449 295.502ZM227.627 278.93C227.067 278.93 226.521 278.642 226.215 278.126L221.304 269.839C220.843 269.06 221.1 268.054 221.879 267.593C222.658 267.13 223.664 267.388 224.125 268.167L229.036 276.454C229.498 277.233 229.241 278.239 228.462 278.7C228.199 278.856 227.911 278.93 227.627 278.93ZM217.805 262.357C217.245 262.357 216.699 262.069 216.393 261.553L214.722 258.733C214.688 258.676 214.658 258.617 214.631 258.556L212.079 252.737C211.715 251.907 212.092 250.94 212.922 250.577C213.752 250.211 214.718 250.59 215.082 251.419L217.594 257.147L219.214 259.881C219.676 260.66 219.419 261.666 218.64 262.127C218.377 262.283 218.089 262.357 217.805 262.357ZM209.712 244.897C209.081 244.897 208.479 244.53 208.21 243.915L204.341 235.094C203.977 234.265 204.354 233.298 205.184 232.934C206.013 232.57 206.98 232.948 207.343 233.777L211.213 242.598C211.576 243.427 211.199 244.394 210.37 244.758C210.155 244.852 209.932 244.897 209.712 244.897ZM201.974 227.255C201.343 227.255 200.741 226.888 200.472 226.273L196.602 217.452C196.239 216.623 196.616 215.656 197.445 215.292C198.275 214.927 199.242 215.306 199.605 216.135L203.474 224.956C203.838 225.785 203.461 226.752 202.631 227.116C202.417 227.21 202.194 227.255 201.974 227.255Z" fill="#616264"/>
<path d="M264.392 340.964C263.832 340.964 263.286 340.676 262.98 340.159L260.592 336.13C260.13 335.351 260.387 334.345 261.166 333.884C261.945 333.421 262.951 333.679 263.412 334.458L265.8 338.488C266.262 339.267 266.005 340.272 265.226 340.734C264.964 340.889 264.676 340.964 264.392 340.964Z" fill="#1653FC"/>
<path d="M73.808 85.6036C73.808 94.0754 61.9394 109.535 56.5683 116.097C55.2316 117.73 52.7331 117.73 51.3965 116.097C46.0253 109.535 34.1567 94.0753 34.1567 85.6036C34.1567 74.6543 43.0329 65.7781 53.9823 65.7781C64.9317 65.7781 73.808 74.6543 73.808 85.6036Z" fill="#616264"/>
<path d="M53.9824 96.6608C60.089 96.6608 65.0395 91.7104 65.0395 85.6037C65.0395 79.4971 60.089 74.5466 53.9824 74.5466C47.8757 74.5466 42.9253 79.4971 42.9253 85.6037C42.9253 91.7104 47.8757 96.6608 53.9824 96.6608Z" fill="white"/>
<path d="M53.9824 129.795C56.2204 129.795 58.0347 127.98 58.0347 125.742C58.0347 123.504 56.2204 121.69 53.9824 121.69C51.7444 121.69 49.9302 123.504 49.9302 125.742C49.9302 127.98 51.7444 129.795 53.9824 129.795Z" fill="#616264"/>
<path d="M377.71 142.225C377.71 185.792 316.674 265.293 289.052 299.04C282.179 307.439 269.329 307.439 262.456 299.04C234.834 265.293 173.798 185.792 173.798 142.225C173.798 85.9161 219.446 40.269 275.754 40.269C332.063 40.269 377.71 85.9161 377.71 142.225Z" fill="#616264"/>
<path d="M275.754 369.483C287.263 369.483 296.593 360.152 296.593 348.643C296.593 337.134 287.263 327.804 275.754 327.804C264.245 327.804 254.915 337.134 254.915 348.643C254.915 360.152 264.245 369.483 275.754 369.483Z" fill="#616264"/>
<path d="M374.95 142.225C374.95 185.792 313.915 265.293 286.293 299.04C279.419 307.439 266.57 307.439 259.696 299.04C232.075 265.293 171.039 185.792 171.039 142.225C171.039 85.9161 216.686 40.269 272.995 40.269C329.303 40.269 374.95 85.9161 374.95 142.225Z" fill="#9E9FA2"/>
<path d="M272.995 199.087C304.399 199.087 329.857 173.629 329.857 142.225C329.857 110.821 304.399 85.3625 272.995 85.3625C241.591 85.3625 216.133 110.821 216.133 142.225C216.133 173.629 241.591 199.087 272.995 199.087Z" fill="white"/>
<path d="M272.995 369.483C284.504 369.483 293.834 360.152 293.834 348.643C293.834 337.134 284.504 327.804 272.995 327.804C261.485 327.804 252.155 337.134 252.155 348.643C252.155 360.152 261.485 369.483 272.995 369.483Z" fill="#B0B1B2"/>
<g opacity="0.5">
<path d="M272.544 257.179C279.013 214.58 307.143 200.945 302.315 160.722C296.747 114.334 255.673 101.979 254.682 60.6929C254.522 54.0461 255.427 47.6367 257.132 41.4993C208.358 49.119 171.039 91.3121 171.039 142.225C171.039 185.792 232.075 265.293 259.696 299.04C263.742 303.984 269.858 306.014 275.607 305.138C270.664 286.479 270.514 270.547 272.544 257.179Z" fill="white"/>
</g>
<path d="M273.98 101.558L233.754 130.382H314.132L273.98 101.558Z" fill="#616264"/>
<path d="M238.262 135.053V175.874H309.699V135.053H238.262ZM270.126 159.698H248.698V143.772H270.126V159.698ZM297.295 171.61H281.539V143.772H297.295V171.61Z" fill="#616264"/>
<path d="M203.398 224.227C203.398 224.227 204.767 217.076 206.136 214.947C207.506 212.817 210.06 211.448 210.06 211.448C210.06 211.448 210.593 212.323 208.897 214.167C207.201 216.012 208.615 216.194 208.897 216.787C209.179 217.381 208.571 219.511 207.353 220.271C206.136 221.032 205.68 225.179 205.68 225.179L203.398 224.227Z" fill="#F99B4C"/>
<path d="M207.354 223.314C205.883 223.06 204.412 222.807 202.942 222.553C197.678 232.311 191.512 238.584 187.313 242.225C182.351 246.527 179.148 249.305 173.884 250.698C166.108 252.756 159.392 250.34 158.519 252.524C158.092 253.591 159.573 254.747 161.942 257.582C168.842 265.838 168.19 270.277 171.983 271.502C175.117 272.515 178.271 270.337 183.621 266.52C188.488 263.047 194.59 258.694 199.747 250.394C206.664 239.261 207.356 228.307 207.354 223.314Z" fill="#616264"/>
<path d="M142.545 253.411C141.83 253.681 130.926 258.017 128.685 269.398C128.504 270.317 126.752 280.095 133.383 287.003C140.818 294.748 155.136 294.556 160.819 288.081C162.144 286.571 162.843 284.898 163.235 283.491L161.738 279.513C159.91 277.307 157.423 276.785 156.094 276.457C152.819 275.65 150.346 277.109 148.47 275.53C147.432 274.656 147.226 273.398 147.042 272.274C146.414 268.447 148.574 266.092 148.732 263.732C148.849 261.968 149.467 258.102 147.164 255.582C145.706 253.985 143.686 253.551 142.545 253.411Z" fill="#616264"/>
<path d="M138.296 380.244C138.169 379.543 135.907 378.909 134.786 379.848C134.23 380.313 133.847 381.258 134.169 381.685C134.286 381.84 133.806 382.113 134.266 382.118C135.79 382.136 138.423 380.94 138.296 380.244Z" fill="#616264"/>
<path d="M135.925 380.499L133.598 380.17C134.676 378.872 134.477 374.739 134.477 374.739L136.951 375.291C136.951 375.291 136.669 376.426 136.19 378.099C136.025 378.672 135.952 379.569 135.925 380.499Z" fill="#D7DDE8"/>
<path d="M136.131 380.212C136.131 380.212 133.33 379.567 133.027 380.123C132.723 380.678 132.488 382.166 134.266 382.118C136.043 382.07 136.289 380.684 136.131 380.212Z" fill="#616264"/>
<path d="M170.224 382.871C170 382.195 167.671 381.884 166.693 382.97C166.208 383.509 165.961 384.498 166.339 384.875C166.477 385.013 166.04 385.35 166.496 385.291C168.007 385.095 170.447 383.543 170.224 382.871Z" fill="#616264"/>
<path d="M167.912 383.455H165.562C166.448 382.019 165.672 377.955 165.672 377.955L168.199 378.155C168.199 378.155 168.079 379.318 167.838 381.042C167.756 381.632 167.808 382.53 167.912 383.455Z" fill="#D7DDE8"/>
<path d="M174.002 294.586C175.091 298.181 176.645 303.983 177.646 311.263C180.501 332.027 174.434 332.689 175.567 355.699C175.928 363.043 169.204 379.979 168.611 380.353C168.324 380.381 168.013 380.4 167.681 380.39C167.096 380.372 166.271 380.282 165.312 379.995C164.247 379.811 160.407 369.409 161.297 363.224C161.927 358.847 161.744 354.149 161.379 344.753C161.32 343.23 157.425 315.133 157.425 315.133C156.24 325.533 154.877 334.37 153.696 341.221C149.9 363.233 137.56 376.556 136.916 376.77C136.789 376.821 135.631 377.241 134.684 376.617C134.263 376.34 134.12 375.981 134.12 375.981C133.79 375.723 134.217 354.005 137.981 337.661C143.444 313.937 141.065 308.386 142.797 297.789C144.294 288.62 174.002 294.586 174.002 294.586Z" fill="#9E9FA2"/>
<path d="M151.935 251.559C155.562 251.453 163.899 250.172 168.492 254.304C168.571 254.376 167.631 254.879 168.094 255.421C168.524 255.925 169.999 257.689 171.336 260.073C172.305 261.8 173.179 263.814 174.061 266.814C175.617 272.105 176.063 276.611 176.212 278.574C177.051 289.614 176.219 294.707 175.464 298.171C172.184 299.855 163.734 302.869 153.664 301.372C149.066 300.688 145.386 299.158 142.796 297.792C145.409 289.881 143.36 285.648 142.392 281.746C141.013 276.182 140.991 276.603 139.856 272.183C137.982 264.891 137.675 257.44 138.962 255.915C142.433 251.804 148.687 251.655 151.935 251.559Z" fill="#616264"/>
<path d="M168.076 383.143C168.076 383.143 165.212 382.896 164.989 383.489C164.767 384.081 164.743 385.587 166.496 385.291C168.249 384.995 168.298 383.587 168.076 383.143Z" fill="#616264"/>
<path d="M159.555 244.762C160.152 242.637 159.109 240.669 158.879 240.245C157.917 238.47 157.67 238.228 157.211 237.92L156.573 237.526C156.573 237.526 156.536 237.511 156.497 237.498C156.088 237.352 154.692 237.309 154.409 237.37C153.506 237.563 152.544 241.243 152.818 246.446C152.781 246.645 152.745 246.845 152.71 247.046C152.567 247.868 152.454 248.673 152.367 249.461C152.283 250.214 151.782 250.856 151.074 251.123C146.273 252.936 146.282 251.488 145.786 253.048C145.515 253.897 150.967 255.269 153.649 254.959C159.683 255.004 164.592 254.361 164.064 253.411C163.83 252.989 159.155 251.767 157.84 250.557C156.636 249.448 156.734 248.303 156.635 247.484C157 247.294 159.116 246.328 159.555 244.762Z" fill="#D7DDE8"/>
<path d="M158.445 236.048C158.44 237.66 157.681 239.382 157.294 239.658C157.244 239.694 156.962 239.916 156.71 240.296C156.675 240.348 156.645 240.409 156.618 240.487C156.265 241.503 157.88 242.698 157.568 243.153C157.342 243.483 156.244 243.041 156.114 243.326C155.991 243.594 156.903 244.15 156.763 244.471C156.658 244.713 156.097 244.491 155.743 244.863C155.566 245.048 155.618 245.195 155.431 245.76C155.325 246.08 155.177 246.43 155.063 246.625C154.506 247.571 152.928 247.917 152.624 247.538C152.54 247.432 152.612 247.344 152.526 246.99C152.526 246.99 152.446 246.661 152.217 246.282C151.891 245.739 151.103 245.351 150.308 244.779C148.836 243.719 148.436 242.815 148.316 242.51C148.273 242.401 148.247 242.319 148.227 242.26C147.845 241.072 147.843 239.327 148.377 238.253C149.272 236.455 151.29 237.309 152.943 235.528C154.849 233.472 153.714 230.663 154.748 230.353C155.888 230.011 158.455 233.068 158.445 236.048Z" fill="#616264"/>
<path d="M156.989 242.774C156.594 242.231 155.9 242.741 155.896 243.444C155.891 244.146 156.572 244.876 157.232 244.738C157.893 244.599 157.52 243.505 156.989 242.774Z" fill="#D7DDE8"/>
<path d="M143.952 292.813C143.947 292.813 143.942 292.813 143.937 292.812C143.864 292.804 143.812 292.739 143.82 292.666C144.248 288.812 143.45 286.012 142.745 283.542C142.571 282.932 142.407 282.356 142.264 281.778C141.481 278.62 141.138 277.401 140.776 276.11C140.539 275.27 140.295 274.401 139.917 272.948C139.898 272.877 139.941 272.805 140.012 272.786C140.083 272.768 140.155 272.81 140.174 272.882C140.551 274.332 140.795 275.2 141.031 276.039C141.395 277.331 141.738 278.552 142.521 281.714C142.663 282.287 142.827 282.861 143 283.469C143.712 285.962 144.518 288.789 144.084 292.695C144.076 292.763 144.019 292.813 143.952 292.813Z" fill="#C1D6FF"/>
<path d="M156.668 241.599L157.585 242.791C157.585 242.791 158.573 244.252 159.15 243.452C159.621 242.798 159.743 242.812 159.772 242.84C159.778 242.845 159.779 242.853 159.781 242.852C159.789 242.85 159.711 242.527 159.642 242.243C159.886 242.593 160.222 243.161 160.426 243.926C160.624 244.668 160.836 245.463 160.417 246.227C160.392 246.271 159.931 247.084 159.069 247.28C159.069 247.28 158.73 247.358 157.298 247.106C157.298 247.106 158.863 245.97 158.887 245.701C158.952 244.967 157.935 244.571 157.179 243.067C156.888 242.486 156.745 241.961 156.668 241.599Z" fill="#616264"/>
<defs>
<linearGradient id="paint0_linear_220_841" x1="45.8572" y1="332.057" x2="54.4835" y2="121.325" gradientUnits="userSpaceOnUse">
<stop stop-color="#FFC444"/>
<stop offset="0.9964" stop-color="#F36F56"/>
</linearGradient>
</defs>
</svg>
