<svg width="388" height="394" viewBox="0 0 388 394" fill="none" xmlns="http://www.w3.org/2000/svg">
<path d="M183.035 4.22853C135.62 -18.2697 22.2504 51.7752 2.98331 148.674C-18.5919 257.181 79.9281 388.81 199.236 388.679C276.625 388.594 350.372 333.083 376.506 257.751C408.48 165.587 365.619 54.0342 318.712 43.7664C291.457 37.8004 272.493 68.142 239.061 57.6615C207.669 47.8203 207.101 15.6478 183.035 4.22853Z" fill="#ECEDEF"/>
<path d="M286.338 378.864C282.721 378.577 278.094 377.572 273.652 374.668C268.847 371.527 262.588 365.07 264.222 361.002C264.832 359.484 266.588 358.183 268.131 358.307C270.412 358.49 270.677 361.657 274.637 365.103C275.369 365.739 279.152 369.031 281.033 367.922C281.968 367.371 282.245 365.843 282.093 364.681C281.647 361.284 277.499 360.762 273.512 357.085C269.469 353.356 266.099 346.852 268.026 342.455C269.133 339.928 272.06 337.933 273.985 338.494C274.808 338.733 275.329 339.406 277.827 344.801C279.876 349.229 280.332 350.52 281.654 350.94C283.014 351.372 285.129 350.83 285.933 349.489C288.026 345.999 278.978 340.846 278.157 331.078C277.788 326.701 278.973 320.213 282.936 318.823C285.616 317.883 289.434 319.318 290.814 321.777C292.058 323.993 290.547 325.66 291.496 330.639C291.784 332.15 292.377 335.258 293.627 335.422C295.096 335.613 296.739 331.649 297.118 330.684C299.977 323.416 296.699 319.678 299.395 316.15C301.497 313.399 306.07 312.294 309.694 313.683C312.864 314.899 315.4 318.062 315.57 321.339C315.742 324.673 312.938 327.992 307.329 334.631C304.669 337.779 302.553 339.906 302.674 343.035C302.732 344.56 303.337 346.706 304.43 346.902C306.841 347.334 308.028 337.624 313.743 336.125C316.668 335.357 320.303 336.866 321.901 339.503C323.858 342.734 322.547 347.313 320.088 349.72C316.88 352.862 313.59 350.475 307.554 353.849C304.876 355.346 300.667 358.531 301.284 361.164C301.552 362.311 302.754 363.433 304.073 363.583C307.029 363.919 308.005 359.074 312.758 356.944C316.182 355.409 320.918 355.575 322.042 357.506C323.63 360.233 317.991 366.422 314.992 369.157C311.368 372.464 302.819 378.734 286.338 378.864Z" fill="#9E9FA2"/>
<path opacity="0.5" d="M287.962 377.311C287.485 369.207 292.852 352.701 296.757 344.898C300.578 337.263 304.234 325.184 304.27 325.062L304.508 325.134C304.471 325.256 300.81 337.355 296.979 345.01C293.086 352.788 287.735 369.233 288.21 377.296L287.962 377.311Z" fill="white"/>
<path d="M271.632 378.894C268.909 375.113 264.914 368.291 264.197 359.163C263.902 355.402 263.326 348.056 267.819 341.72C270.059 338.562 274.809 333.891 278.019 335.238C280.084 336.105 281.366 339.403 280.783 341.91C280.195 344.439 278.058 344.673 275.731 348.964C274.87 350.552 273.886 352.416 274.642 353.469C275.273 354.348 277.007 354.508 278.307 353.981C280.993 352.891 280.154 349.548 283.057 347.149C285.122 345.444 288.563 344.642 290.049 346.039C291.338 347.252 291.114 350.085 289.974 351.974C288.149 354.998 284.878 354.111 282.745 357.417C281.798 358.884 281.126 361.1 281.954 361.976C282.897 362.974 285.675 362.111 287.455 361.007C289.805 359.55 289.892 358 291.439 357.806C293.166 357.589 295.324 359.233 295.662 361.052C296.134 363.599 293.009 366.347 290.534 367.54C287.366 369.069 285.012 368.172 283.464 370.259C282.896 371.026 282.376 372.276 282.842 373.035C283.506 374.118 285.908 373.761 287.502 373.523C291.383 372.946 292.451 371.538 293.841 372.222C295.249 372.914 295.975 375.252 295.367 376.893C295.028 377.804 294.012 379.216 288.975 380.1C285.45 380.719 279.527 381.154 271.632 378.894Z" fill="#CCCED0"/>
<path d="M233.306 338.196C228.432 336.669 224.74 332.615 223.635 327.576L215.999 292.775L155.682 295.922L148.86 332.423C147.905 337.535 152.154 342.576 156.981 344.373L182.395 353.832C187.122 355.592 192.182 356.239 197.192 355.727L250.479 350.274C252.036 350.114 253.267 348.867 253.422 347.291C253.578 345.715 254.641 343.931 253.146 343.462L233.306 338.196Z" fill="#616264"/>
<path d="M233.868 336.062C228.999 334.555 225.312 330.553 224.208 325.577L216.587 291.216L157.741 294.314L150.919 330.357C149.963 335.405 152.797 340.403 157.619 342.176L183.005 351.512C187.727 353.248 192.782 353.887 197.788 353.38L251.021 347.985C252.577 347.828 253.807 346.596 253.963 345.039C254.118 343.483 253.156 342.032 251.662 341.57L233.868 336.062Z" fill="#9E9FA2"/>
<path d="M329.115 266.608L326.51 110.037C326.457 106.826 323.765 104.137 320.521 104.061L51.3486 97.7233C47.2527 97.6269 43.9406 100.511 44.0008 104.133L46.8798 277.168L329.115 266.608Z" fill="#9E9FA2"/>
<path d="M52.7217 128.076L54.9705 263.241C55.0267 266.615 58.1897 269.235 61.9888 269.063L317.159 257.556C320.204 257.418 322.649 254.844 322.598 251.835L320.593 131.283L52.7217 128.076Z" fill="#CCCED0"/>
<path d="M320.13 131.589L319.9 117.754C319.851 114.807 317.373 112.345 314.387 112.283L58.6833 107.002C54.9575 106.925 51.9457 109.565 52.0007 112.87L52.2589 128.382L320.13 131.589Z" fill="#ECEDEF"/>
<path d="M71.2268 117.242C71.2462 118.403 70.2027 119.329 68.8945 119.309C67.5842 119.29 66.5049 118.33 66.4856 117.165C66.4663 116 67.5142 115.075 68.8245 115.098C70.1327 115.12 71.2075 116.08 71.2268 117.242Z" fill="#CCCED0"/>
<path d="M81.4311 117.407C81.4503 118.562 80.4192 119.482 79.1263 119.463C77.8314 119.443 76.7646 118.489 76.7454 117.331C76.7262 116.173 77.7617 115.253 79.0567 115.276C80.3496 115.298 81.4119 116.252 81.4311 117.407Z" fill="#CCCED0"/>
<path d="M91.5174 117.571C91.5365 118.719 90.5174 119.634 89.2394 119.615C87.9596 119.595 86.9051 118.647 86.886 117.496C86.8669 116.345 87.8903 115.43 89.1702 115.452C90.4483 115.474 91.4983 116.423 91.5174 117.571Z" fill="#CCCED0"/>
<path d="M46.8799 277.168L47.4549 311.725C47.5151 315.347 50.9212 318.113 55.0116 317.872L323.815 302.024C327.055 301.833 329.655 299.051 329.602 295.84L329.099 265.604L46.8799 277.168Z" fill="#9E9FA2"/>
<path d="M93.6185 86.5984C104.152 103.565 113.58 121.875 104.251 172.71C95.1146 222.5 95.5652 246.476 104.23 267.158L296.257 258.498C290.59 247.919 289.61 241.013 288.842 229.547C286.009 187.265 311.292 145.861 296.161 101.659C289.587 82.4534 278.019 70.9034 269.649 64.2998C203.474 63.8666 137.299 63.4334 71.124 63C77.6214 67.4894 86.3257 74.8514 93.6185 86.5984Z" fill="url(#paint0_linear_220_1008)"/>
<path d="M274.832 224.781C274.839 225.206 274.848 225.631 274.86 226.056C274.872 226.456 274.489 226.789 273.996 226.804L113.817 231.757C113.274 231.774 112.834 231.406 112.875 230.967C112.915 230.543 112.954 230.114 112.994 229.682C113.029 229.311 113.4 229.017 113.859 229.002L273.889 224.054C274.399 224.038 274.825 224.367 274.832 224.781Z" fill="#ECEDEF"/>
<path d="M275.324 211.259C275.287 211.685 275.252 212.112 275.219 212.539C275.189 212.914 274.816 213.21 274.352 213.224L114.572 217.743C114.036 217.758 113.599 217.397 113.633 216.963C113.666 216.538 113.698 216.109 113.731 215.678C113.76 215.302 114.135 215.003 114.599 214.99L274.386 210.47C274.925 210.454 275.362 210.822 275.324 211.259Z" fill="#ECEDEF"/>
<path d="M275.939 238.258C276.002 238.681 276.068 239.103 276.137 239.525C276.206 239.952 275.813 240.334 275.282 240.352L115.577 245.747C115.033 245.766 114.59 245.394 114.633 244.953C114.674 244.529 114.716 244.101 114.759 243.668C114.795 243.299 115.165 243.009 115.621 242.993L275 237.608C275.474 237.592 275.882 237.876 275.939 238.258Z" fill="#ECEDEF"/>
<path d="M277.024 197.709C276.956 198.138 276.888 198.567 276.822 198.996C276.767 199.353 276.402 199.624 275.959 199.635L115.528 203.746C114.998 203.759 114.566 203.405 114.591 202.975C114.616 202.55 114.641 202.123 114.666 201.693C114.688 201.311 115.067 201.006 115.538 200.993L276.096 196.88C276.655 196.865 277.096 197.26 277.024 197.709Z" fill="#ECEDEF"/>
<path d="M278.939 251.67C279.066 252.09 279.196 252.51 279.329 252.929C279.473 253.38 279.073 253.822 278.499 253.843L118.431 259.734C117.899 259.753 117.457 259.398 117.481 258.966C117.505 258.541 117.531 258.111 117.559 257.675C117.582 257.298 117.955 256.997 118.42 256.98L278.018 251.107C278.451 251.092 278.836 251.328 278.939 251.67Z" fill="#ECEDEF"/>
<path d="M279.495 184.158C279.409 184.587 279.324 185.016 279.239 185.446C279.17 185.793 278.808 186.051 278.375 186.061L118.013 189.742C117.49 189.754 117.061 189.406 117.079 188.982C117.096 188.557 117.114 188.13 117.131 187.7C117.146 187.313 117.529 187.002 118.006 186.991L278.572 183.305C279.141 183.292 279.586 183.702 279.495 184.158Z" fill="#ECEDEF"/>
<path d="M281.519 102.796C281.922 102.794 282.281 103.009 282.396 103.323C282.553 103.751 282.706 104.18 282.855 104.614C282.856 104.617 282.857 104.62 282.858 104.623C283.016 105.086 282.583 105.542 281.991 105.544L116.957 106.246C116.524 106.248 116.151 105.999 116.063 105.655C115.954 105.228 115.843 104.804 115.729 104.384C115.607 103.928 116.029 103.499 116.604 103.497L281.519 102.796Z" fill="#ECEDEF"/>
<path d="M285.949 116.738C286.023 117.168 286.093 117.598 286.16 118.028C286.228 118.462 285.811 118.846 285.271 118.851L119.645 120.114C119.18 120.118 118.787 119.832 118.734 119.457C118.674 119.029 118.612 118.605 118.55 118.183C118.485 117.749 118.897 117.37 119.436 117.366L285.036 116.102C285.493 116.099 285.886 116.371 285.949 116.738Z" fill="#ECEDEF"/>
<path d="M275.411 91.514L112.148 92.1883C111.763 92.1899 111.419 91.9921 111.29 91.6981C109.727 88.1579 107.952 84.8233 105.948 81.596C104.938 79.9698 103.879 78.3823 102.774 76.8313C102.423 76.3387 102.854 75.7254 103.554 75.7273L264.123 76.182C264.388 76.1828 264.641 76.2766 264.814 76.4398C269.255 80.6265 273.063 85.3085 276.218 90.4582C276.515 90.943 276.078 91.5112 275.411 91.514Z" fill="#ECEDEF"/>
<path d="M282.262 170.62C282.175 171.049 282.088 171.478 282 171.907C281.929 172.254 281.565 172.511 281.131 172.52L120.256 175.76C119.739 175.77 119.314 175.425 119.324 175.006C119.335 174.577 119.345 174.15 119.355 173.724C119.364 173.332 119.751 173.018 120.234 173.008L281.341 169.764C281.911 169.752 282.355 170.164 282.262 170.62Z" fill="#ECEDEF"/>
<path d="M284.823 157.107C284.75 157.535 284.677 157.964 284.602 158.392C284.54 158.748 284.168 159.016 283.725 159.023L121.81 161.804C121.3 161.812 120.88 161.475 120.882 161.061C120.884 160.632 120.886 160.206 120.887 159.781C120.888 159.383 121.28 159.062 121.77 159.053L283.899 156.269C284.458 156.26 284.899 156.658 284.823 157.107Z" fill="#ECEDEF"/>
<path d="M286.651 143.621C286.61 144.05 286.568 144.48 286.523 144.909C286.484 145.284 286.101 145.573 285.638 145.579L121.69 147.889C121.189 147.896 120.776 147.57 120.766 147.163C120.755 146.735 120.744 146.309 120.733 145.885C120.722 145.479 121.118 145.146 121.618 145.139L285.727 142.827C286.262 142.82 286.693 143.188 286.651 143.621Z" fill="#ECEDEF"/>
<path d="M287.204 130.167C287.212 130.596 287.217 131.026 287.219 131.456C287.222 131.858 286.823 132.185 286.327 132.191L121.063 133.994C120.577 133.999 120.171 133.689 120.144 133.295C120.114 132.866 120.083 132.441 120.052 132.019C120.02 131.601 120.424 131.25 120.939 131.245L286.279 129.441C286.78 129.436 287.196 129.761 287.204 130.167Z" fill="#ECEDEF"/>
<path d="M195.008 132.445C195.008 152.503 178.845 169.843 158.846 171.18C138.779 172.522 122.461 157.252 122.461 137.07C122.461 116.888 138.779 99.5371 158.846 98.3199C178.845 97.107 195.008 112.387 195.008 132.445Z" fill="#616264"/>
<path d="M199.301 133.73C199.301 153.787 183.138 171.128 163.139 172.465C143.072 173.806 126.754 158.537 126.754 138.354C126.754 118.172 143.072 100.822 163.139 99.6046C183.138 98.3917 199.301 113.672 199.301 133.73Z" fill="#9E9FA2"/>
<path d="M161.862 155.748C160.289 155.851 158.826 155.12 158.012 153.812L144.337 131.855C143.056 129.797 143.746 126.979 145.879 125.56C148.01 124.142 150.775 124.66 152.055 126.717L161.538 141.959L174.051 116.475C175.174 114.188 177.872 113.139 180.075 114.131C182.278 115.122 183.155 117.779 182.034 120.064L165.864 153.024C165.123 154.533 163.651 155.571 162.02 155.735C161.967 155.74 161.915 155.745 161.862 155.748Z" fill="white"/>
<path d="M180.56 173.945C180.56 173.945 179.208 171.241 180.56 167.861C181.911 164.482 181.911 159.074 182.587 157.047C182.75 156.557 182.717 156.265 182.562 156.15C182.244 155.914 180.785 157.856 179.884 159.75C178.286 163.109 178.728 165.667 177.856 165.834C176.881 166.02 175.787 162.927 175.152 163.13C174.66 163.287 175.152 165.281 175.152 167.186C175.152 168.537 178.532 175.297 178.532 175.297L180.56 173.945Z" fill="#D7DDE8"/>
<path d="M254.244 203.175C254.406 199.865 254.761 192.63 250.759 190.107C245.474 186.775 237.694 194.881 228.979 197.076C219.817 199.385 205.032 196.316 181.064 170.07C179.612 171.522 178.16 172.974 176.708 174.426C179.183 183.133 185.536 200.264 201.973 212.758C205.81 215.675 229.123 233.396 243.79 224.084C250.98 219.518 253.917 209.837 254.244 203.175Z" fill="#58595B"/>
<path d="M258.517 388.418C259.192 388.967 259.316 390.337 259.397 391.232C259.434 391.633 259.452 391.833 259.407 391.974C259.081 393.005 257.082 393.113 253.947 393.433C248.993 393.939 247.519 394.329 247.131 393.592C246.768 392.901 247.647 391.77 247.746 391.645C248.279 390.974 248.932 390.731 250.195 390.315C252.532 389.546 254.111 389.125 254.59 388.997C257.575 388.2 258.074 388.058 258.517 388.418Z" fill="#464B56"/>
<path d="M255.572 383.893L255.076 389.538C255.217 389.81 256.895 390.628 258.228 389.927L259.502 384.378L255.572 383.893Z" fill="#D7DDE8"/>
<path d="M215.216 385.922C216.025 386.815 216.209 388.46 215.506 389.271C214.815 390.068 213.775 389.47 210.826 389.558C207.667 389.652 206.843 390.398 204.696 389.806C203.829 389.567 202.298 388.985 202.327 388.366C202.347 387.93 203.127 387.706 205.731 386.833C209.427 385.595 209.411 385.527 210.196 385.397C212.168 385.071 214.148 384.742 215.216 385.922Z" fill="#464B56"/>
<path d="M213.193 380.771L211.608 386.041C211.728 386.323 213.339 387.266 214.721 386.669L217.074 381.554L213.193 380.771Z" fill="#D7DDE8"/>
<path d="M227.268 265.354C227.041 283.065 225.832 302.978 222.933 324.613C220.067 345.995 216.05 365.315 211.669 382.305C213.69 382.849 215.712 383.393 217.733 383.936C222.861 379.155 229.33 371.628 232.451 360.991C234.389 354.389 233.743 350.996 234.972 342.876C236.929 329.946 240.892 323.173 244.988 312.747C248.669 303.378 253.02 289.628 255.353 271.248C245.992 269.284 236.63 267.319 227.268 265.354Z" fill="#818287"/>
<path opacity="0.3" d="M227.268 265.354C232.789 269.563 239.65 276.199 239.433 284.196C239.272 290.13 235.365 291.221 232.464 299.877C228.906 310.491 233.241 313.44 230.721 326.884C228.846 336.891 226.543 334.731 223.752 346.922C221.266 357.776 222.37 362.641 218.525 371.315C216.312 376.306 213.6 379.987 211.669 382.305C213.69 382.849 215.712 383.393 217.733 383.936C222.861 379.155 229.33 371.628 232.451 360.991C234.389 354.389 233.743 350.996 234.972 342.876C236.929 329.946 240.892 323.173 244.988 312.747C248.669 303.378 253.02 289.628 255.353 271.248C245.991 269.284 236.629 267.319 227.268 265.354Z" fill="#818287"/>
<path d="M249.536 265.434C250.772 287.959 251.788 310.903 252.558 334.253C253.136 351.776 253.56 369.075 253.841 386.148C255.906 386.403 257.97 386.658 260.035 386.913C262.03 383.198 264.681 377.52 266.496 370.241C268.701 361.401 268.191 356.151 269.159 346.989C270.244 336.713 271.82 334.474 274.612 321.511C280.279 295.203 283.113 282.049 276.793 273.866C274.742 271.21 268.311 264.546 249.536 265.434Z" fill="#818287"/>
<path d="M240.923 203.649C238.605 202.147 240.717 197.776 240.842 188.387C240.995 176.882 237.939 174.738 240.393 170.224C243.394 164.705 250.949 162.421 255.954 162.313C257.058 162.29 257.316 161.687 266.564 164.082C283.226 168.397 287.397 163.771 294.859 168.392C302.068 172.856 298.911 177.745 305.911 182.981C317.258 191.468 329.19 182.293 337.3 189.391C344.971 196.106 345.147 213.213 337.079 222.549C327.932 233.132 311.44 229.953 300.385 227.854C298.059 227.413 286.312 224.946 274.08 215.918C267.314 210.923 262.668 205.59 259.712 201.66C259.018 200.879 257.936 199.933 256.507 199.781C254.791 199.598 253.413 200.647 252.749 201.107C249.262 203.522 243.2 205.125 240.923 203.649Z" fill="#616264"/>
<path d="M249.34 191.216C249.34 191.216 268.695 185.572 277.219 195.221C278.546 196.724 279.891 198.936 280.922 203.819C284.539 220.953 274.911 227.056 276.226 242.602C276.376 244.383 278.057 261.478 290.472 271.984C296.376 276.981 303.103 279.129 302.937 283.559C302.818 286.748 299.181 289.654 295.814 290.682C289.372 292.648 285.613 287.219 277.116 285.34C268.237 283.376 266.179 287.944 252.186 289.792C247.528 290.407 226.268 293.214 221.023 284.449C218.79 280.719 221.543 278.375 225.475 263.08C225.872 261.534 232.679 234.654 230.619 222.942C230.44 221.926 229.839 217.81 230.017 212.35C230.06 210.999 230.231 209.49 230.619 207.689C230.619 207.689 232.264 200.059 238.199 193.507C239.051 192.567 240.066 191.588 249.34 191.216Z" fill="#58595B"/>
<path d="M255.556 178.662C255.294 179.887 253.959 186.458 256.648 188.149C257.23 188.515 258.35 188.725 260.59 189.145C262.057 189.42 263.287 189.588 264.155 189.692C264.029 190.794 263.658 192.588 262.386 194.219C258.822 198.793 251.674 197.609 250.655 197.423C247.06 196.769 243.522 195.658 242.667 194.979C241.366 193.945 240.343 193.17 239.738 192.382C241.13 191.709 243.939 189.936 245.824 189.356C247.233 188.922 248.555 188.613 249.758 188.391C249.955 187.122 250.153 185.852 250.351 184.583C252.086 182.609 253.821 180.636 255.556 178.662Z" fill="#D7DDE8"/>
<path d="M255.682 181.937C255.682 181.937 255.196 186.753 250.515 187.601C246.324 188.361 243.169 178.233 245.314 175.613C246.029 174.739 247.795 173.908 249.327 173.952C250.404 173.983 254.042 175.368 254.549 179.008C255.274 178.245 256.176 178.025 256.621 178.345C257.186 178.75 256.884 179.929 256.815 180.196C256.577 181.122 255.973 181.695 255.682 181.937Z" fill="#D7DDE8"/>
<path d="M248.229 260.103L235.176 227.78C234.293 225.594 235.455 223.118 237.702 222.401L263.532 214.15C265.027 213.81 266.545 214.614 267.105 216.041L280.452 250.117C281.116 251.814 280.18 253.715 278.43 254.223L251.959 261.904C250.438 262.345 248.829 261.568 248.229 260.103Z" fill="#9E9FA2"/>
<path d="M249.887 241.507C249.887 241.507 247.274 239.765 247.274 238.022C247.274 236.28 245.532 233.667 244.66 233.667C243.789 233.667 243.789 234.538 244.66 236.28C245.532 238.022 241.176 237.151 239.433 235.409C237.691 233.667 235.948 233.667 236.82 234.538C238.197 235.915 238.562 237.151 238.562 237.151C238.562 237.151 240.304 244.121 247.927 243.685L249.887 241.507Z" fill="#D7DDE8"/>
<path d="M268.183 191.849C273.756 189.363 283.081 199.613 284.736 201.432C293.518 211.086 305.978 232.971 296.061 245.863C287.788 256.618 265.575 258.987 247.274 244.992C248.146 243.249 249.017 241.507 249.888 239.765C251.788 240.454 264.284 244.779 273.41 238.022C275.346 236.589 278.323 234.385 278.637 231.053C279.223 224.844 269.788 222.931 265.569 213.629C261.836 205.395 263.378 193.993 268.183 191.849Z" fill="#58595B"/>
<defs>
<linearGradient id="paint0_linear_220_1008" x1="159.418" y1="-29.599" x2="188.422" y2="124.345" gradientUnits="userSpaceOnUse">
<stop stop-color="#EBEFF2"/>
<stop offset="1" stop-color="white"/>
</linearGradient>
</defs>
</svg>
